<svg width="2931" height="832" viewBox="0 0 2931 832" fill="none" xmlns="http://www.w3.org/2000/svg">
<rect x="2035" y="313.387" width="104.387" height="336.078" rx="20" transform="rotate(-90 2035 313.387)" fill="#FF6604"/>
<path fill-rule="evenodd" clip-rule="evenodd" d="M2151.51 131.569L2205.57 69.8955L2255.07 131.297V384.998C2255.07 396.044 2246.12 404.998 2235.07 404.998H2171.51C2160.46 404.998 2151.51 396.044 2151.51 384.998V131.569Z" fill="#FF6604"/>
<path d="M159.961 304.496H177.979C176.514 318.852 172.559 331.254 166.113 341.703C159.668 352.055 150.879 360.014 139.746 365.58C128.613 371.146 115.186 373.93 99.4629 373.93C87.3535 373.93 76.3672 371.635 66.5039 367.045C56.7383 362.455 48.3398 355.961 41.3086 347.562C34.2773 339.066 28.8574 328.91 25.0488 317.094C21.2402 305.277 19.3359 292.143 19.3359 277.689V251.029C19.3359 236.576 21.2402 223.49 25.0488 211.771C28.8574 199.955 34.3262 189.799 41.4551 181.303C48.584 172.807 57.1289 166.264 67.0898 161.674C77.0508 157.084 88.2812 154.789 100.781 154.789C115.918 154.789 129.004 157.572 140.039 163.139C151.074 168.607 159.766 176.518 166.113 186.869C172.559 197.221 176.514 209.721 177.979 224.369H159.961C158.594 212.846 155.566 203.08 150.879 195.072C146.191 187.064 139.697 180.961 131.396 176.762C123.193 172.465 112.988 170.316 100.781 170.316C90.8203 170.316 81.9336 172.221 74.1211 176.029C66.3086 179.838 59.668 185.307 54.1992 192.436C48.7305 199.467 44.5312 207.914 41.6016 217.777C38.7695 227.641 37.3535 238.627 37.3535 250.736V277.689C37.3535 289.408 38.7207 300.199 41.4551 310.062C44.1895 319.926 48.1934 328.471 53.4668 335.697C58.8379 342.924 65.3809 348.539 73.0957 352.543C80.8105 356.547 89.5996 358.549 99.4629 358.549C112.061 358.549 122.559 356.547 130.957 352.543C139.453 348.441 146.045 342.387 150.732 334.379C155.42 326.371 158.496 316.41 159.961 304.496ZM291.943 170.463L218.115 371H199.365L279.932 157.719H292.969L291.943 170.463ZM359.033 371L285.059 170.463L284.033 157.719H297.07L377.783 371H359.033ZM345.85 295.707V311.234H232.617V295.707H345.85ZM408.984 157.719H478.271C493.018 157.719 505.811 160.111 516.65 164.896C527.49 169.682 535.84 176.762 541.699 186.137C547.656 195.414 550.635 206.84 550.635 220.414C550.635 230.473 548.486 239.604 544.189 247.807C539.99 256.01 534.18 262.895 526.758 268.461C519.336 273.93 510.742 277.689 500.977 279.74L494.678 282.084H420.703L420.41 266.703H482.373C493.506 266.703 502.783 264.555 510.205 260.258C517.627 255.961 523.193 250.297 526.904 243.266C530.713 236.137 532.617 228.52 532.617 220.414C532.617 210.746 530.518 202.396 526.318 195.365C522.217 188.236 516.113 182.768 508.008 178.959C499.902 175.15 489.99 173.246 478.271 173.246H427.002V371H408.984V157.719ZM540.674 371L485.449 275.639L504.785 275.492L559.863 369.096V371H540.674ZM732.715 355.619V371H612.744V355.619H732.715ZM618.164 157.719V371H600.146V157.719H618.164ZM717.773 253.373V268.754H612.744V253.373H717.773ZM731.982 157.719V173.246H612.744V157.719H731.982ZM903.516 355.619V371H783.545V355.619H903.516ZM788.965 157.719V371H770.947V157.719H788.965ZM888.574 253.373V268.754H783.545V253.373H888.574ZM902.783 157.719V173.246H783.545V157.719H902.783ZM941.309 157.719H1010.6C1025.34 157.719 1038.13 160.111 1048.97 164.896C1059.81 169.682 1068.16 176.762 1074.02 186.137C1079.98 195.414 1082.96 206.84 1082.96 220.414C1082.96 230.473 1080.81 239.604 1076.51 247.807C1072.31 256.01 1066.5 262.895 1059.08 268.461C1051.66 273.93 1043.07 277.689 1033.3 279.74L1027 282.084H953.027L952.734 266.703H1014.7C1025.83 266.703 1035.11 264.555 1042.53 260.258C1049.95 255.961 1055.52 250.297 1059.23 243.266C1063.04 236.137 1064.94 228.52 1064.94 220.414C1064.94 210.746 1062.84 202.396 1058.64 195.365C1054.54 188.236 1048.44 182.768 1040.33 178.959C1032.23 175.15 1022.31 173.246 1010.6 173.246H959.326V371H941.309V157.719ZM1073 371L1017.77 275.639L1037.11 275.492L1092.19 369.096V371H1073Z" fill="#001B48"/>
<path d="M1291.11 298.637H1238.09V258.939H1291.11C1298.34 258.939 1304.2 257.719 1308.69 255.277C1313.18 252.836 1316.46 249.467 1318.51 245.17C1320.65 240.775 1321.73 235.844 1321.73 230.375C1321.73 224.516 1320.65 219.096 1318.51 214.115C1316.46 209.135 1313.18 205.131 1308.69 202.104C1304.2 198.979 1298.34 197.416 1291.11 197.416H1257.42V371H1206.01V157.719H1291.11C1308.2 157.719 1322.9 160.844 1335.21 167.094C1347.61 173.344 1357.13 181.938 1363.77 192.875C1370.41 203.715 1373.73 216.117 1373.73 230.082C1373.73 243.852 1370.41 255.863 1363.77 266.117C1357.13 276.371 1347.61 284.379 1335.21 290.141C1322.9 295.805 1308.2 298.637 1291.11 298.637ZM1542.33 331.449V371H1434.52V331.449H1542.33ZM1452.83 157.719V371H1401.42V157.719H1452.83ZM1676.22 157.719H1727.64V297.025C1727.64 313.627 1724.17 327.689 1717.24 339.213C1710.3 350.639 1700.59 359.281 1688.09 365.141C1675.59 371 1660.89 373.93 1643.99 373.93C1627.29 373.93 1612.6 371 1599.9 365.141C1587.3 359.281 1577.44 350.639 1570.31 339.213C1563.28 327.689 1559.77 313.627 1559.77 297.025V157.719H1611.33V297.025C1611.33 305.814 1612.6 312.992 1615.14 318.559C1617.68 324.027 1621.39 328.031 1626.27 330.57C1631.15 333.109 1637.06 334.379 1643.99 334.379C1651.03 334.379 1656.93 333.109 1661.72 330.57C1666.5 328.031 1670.12 324.027 1672.56 318.559C1675 312.992 1676.22 305.814 1676.22 297.025V157.719ZM1869.87 314.311C1869.87 310.99 1869.38 308.012 1868.41 305.375C1867.43 302.641 1865.62 300.102 1862.99 297.758C1860.35 295.414 1856.54 293.07 1851.56 290.727C1846.68 288.285 1840.23 285.746 1832.23 283.109C1822.85 279.984 1813.82 276.469 1805.13 272.562C1796.44 268.559 1788.67 263.92 1781.84 258.646C1775 253.275 1769.58 247.025 1765.58 239.896C1761.57 232.67 1759.57 224.271 1759.57 214.701C1759.57 205.521 1761.62 197.27 1765.72 189.945C1769.82 182.523 1775.54 176.225 1782.86 171.049C1790.28 165.775 1798.97 161.771 1808.94 159.037C1818.9 156.205 1829.79 154.789 1841.6 154.789C1857.23 154.789 1871 157.523 1882.91 162.992C1894.92 168.363 1904.3 176.029 1911.04 185.99C1917.87 195.854 1921.29 207.523 1921.29 221H1870.17C1870.17 215.629 1869.04 210.893 1866.8 206.791C1864.65 202.689 1861.38 199.467 1856.98 197.123C1852.59 194.779 1847.07 193.607 1840.43 193.607C1833.98 193.607 1828.56 194.584 1824.17 196.537C1819.78 198.49 1816.46 201.127 1814.21 204.447C1811.96 207.67 1810.84 211.234 1810.84 215.141C1810.84 218.363 1811.72 221.293 1813.48 223.93C1815.33 226.469 1817.92 228.861 1821.24 231.107C1824.66 233.354 1828.76 235.502 1833.54 237.553C1838.43 239.604 1843.9 241.605 1849.95 243.559C1861.28 247.172 1871.34 251.225 1880.13 255.717C1889.01 260.111 1896.48 265.141 1902.54 270.805C1908.69 276.371 1913.33 282.719 1916.46 289.848C1919.68 296.977 1921.29 305.033 1921.29 314.018C1921.29 323.588 1919.43 332.084 1915.72 339.506C1912.01 346.928 1906.69 353.227 1899.76 358.402C1892.82 363.48 1884.52 367.338 1874.85 369.975C1865.19 372.611 1854.39 373.93 1842.48 373.93C1831.54 373.93 1820.75 372.562 1810.11 369.828C1799.56 366.996 1789.99 362.699 1781.4 356.938C1772.8 351.078 1765.92 343.607 1760.74 334.525C1755.66 325.346 1753.12 314.457 1753.12 301.859H1804.69C1804.69 308.109 1805.52 313.383 1807.18 317.68C1808.84 321.977 1811.28 325.443 1814.5 328.08C1817.72 330.619 1821.68 332.475 1826.37 333.646C1831.05 334.721 1836.43 335.258 1842.48 335.258C1849.02 335.258 1854.3 334.33 1858.3 332.475C1862.3 330.521 1865.23 327.982 1867.09 324.857C1868.95 321.635 1869.87 318.119 1869.87 314.311Z" fill="#FF6604"/>
<path fill-rule="evenodd" clip-rule="evenodd" d="M2213.37 37.9245L2203.9 28.8889L2157.69 78.0868L2167.45 87.4029L2204.42 48.0442L2243.84 85.5441L2253.07 75.6891L2213.37 37.9245Z" fill="#001B48"/>
<path fill-rule="evenodd" clip-rule="evenodd" d="M2209.02 11.3672L2203.25 5.85653L2174.2 36.7839L2180.34 42.6403L2203.58 17.8978L2228.36 41.4711L2234.16 35.276L2209.02 11.3672Z" fill="#001B48"/>
</svg>
