<svg width="946" height="542" viewBox="0 0 946 542" fill="none" xmlns="http://www.w3.org/2000/svg">
<path d="M110.01 366H13.0371C12.2559 366 11.8652 365.512 11.8652 364.535L12.1582 158.432C12.1582 157.65 12.5488 157.26 13.3301 157.26H109.717C110.498 157.26 110.889 157.748 110.889 158.725V192.27C110.889 193.051 110.498 193.441 109.717 193.441H48.1934V240.316H109.717C110.498 240.316 110.889 240.707 110.889 241.488L111.182 275.473C111.182 276.254 110.791 276.645 110.01 276.645H48.1934V329.086H110.01C110.791 329.086 111.182 329.574 111.182 330.551V364.828C111.182 365.609 110.791 366 110.01 366ZM235.986 366H139.014C138.232 366 137.842 365.512 137.842 364.535L138.135 158.725C138.135 157.748 138.623 157.26 139.6 157.26H172.998C173.975 157.26 174.463 157.748 174.463 158.725L174.17 329.086H235.986C236.963 329.086 237.451 329.574 237.451 330.551V364.535C237.451 365.512 236.963 366 235.986 366ZM355.225 366H258.252C257.471 366 257.08 365.512 257.08 364.535L257.373 158.432C257.373 157.65 257.764 157.26 258.545 157.26H354.932C355.713 157.26 356.104 157.748 356.104 158.725V192.27C356.104 193.051 355.713 193.441 354.932 193.441H293.408V240.316H354.932C355.713 240.316 356.104 240.707 356.104 241.488L356.396 275.473C356.396 276.254 356.006 276.645 355.225 276.645H293.408V329.086H355.225C356.006 329.086 356.396 329.574 356.396 330.551V364.828C356.396 365.609 356.006 366 355.225 366ZM446.924 366H410.596C409.717 366 409.229 365.512 409.131 364.535L367.676 158.432C367.48 157.65 367.871 157.26 368.848 157.26H402.832C403.613 157.26 404.102 157.65 404.297 158.432L428.906 295.834L452.93 158.432C453.125 157.65 453.613 157.26 454.395 157.26H487.939C489.014 157.26 489.404 157.65 489.111 158.432L448.389 364.535C448.291 365.512 447.803 366 446.924 366ZM726.562 366H692.725C691.846 366 691.406 365.512 691.406 364.535V193.441H652.441C651.465 193.441 650.977 192.953 650.977 191.977L651.27 158.432C651.27 157.65 651.66 157.26 652.441 157.26H766.406C767.48 157.26 768.018 157.65 768.018 158.432V191.977C768.018 192.953 767.627 193.441 766.846 193.441H727.441L727.734 364.535C727.734 365.512 727.344 366 726.562 366ZM880.811 366H783.838C783.057 366 782.666 365.512 782.666 364.535L782.959 158.432C782.959 157.65 783.35 157.26 784.131 157.26H880.518C881.299 157.26 881.689 157.748 881.689 158.725V192.27C881.689 193.051 881.299 193.441 880.518 193.441H818.994V240.316H880.518C881.299 240.316 881.689 240.707 881.689 241.488L881.982 275.473C881.982 276.254 881.592 276.645 880.811 276.645H818.994V329.086H880.811C881.592 329.086 881.982 329.574 881.982 330.551V364.828C881.982 365.609 881.592 366 880.811 366Z" fill="black"/>
<path fill-rule="evenodd" clip-rule="evenodd" d="M651.819 274.747L576.909 145L502 274.747H558.342V366H595.477V274.747H651.819Z" fill="#063186"/>
<path d="M576.5 192L608.976 254.25H544.024L576.5 192Z" fill="#F9F9F9"/>
<path fill-rule="evenodd" clip-rule="evenodd" d="M926 111H833V91H945.686V91.1206H946V198.013H926V111Z" fill="#063186"/>
</svg>
