<svg width="337" height="405" viewBox="0 0 337 405" fill="none" xmlns="http://www.w3.org/2000/svg">
<rect y="313.387" width="104.387" height="336.078" rx="20" transform="rotate(-90 0 313.387)" fill="#FF6604"/>
<path fill-rule="evenodd" clip-rule="evenodd" d="M116.508 131.569L170.566 69.8955L220.07 131.297V384.998C220.07 396.044 211.115 404.998 200.07 404.998H136.508C125.462 404.998 116.508 396.044 116.508 384.998V131.569Z" fill="#FF6604"/>
<path fill-rule="evenodd" clip-rule="evenodd" d="M178.367 37.9245L168.899 28.8889L122.686 78.0868L132.448 87.4029L169.418 48.0442L208.843 85.5441L218.069 75.6891L178.367 37.9245Z" fill="#001B48"/>
<path fill-rule="evenodd" clip-rule="evenodd" d="M174.025 11.3672L168.251 5.85653L139.2 36.7839L145.336 42.6403L168.578 17.8978L193.361 41.4711L199.161 35.276L174.025 11.3672Z" fill="#001B48"/>
</svg>
